<?xml version="1.0" encoding="UTF-8" standalone="no"?>
<!-- Created with Inkscape (http://www.inkscape.org/) -->

<svg
   xmlns:dc="http://purl.org/dc/elements/1.1/"
   xmlns:cc="http://creativecommons.org/ns#"
   xmlns:rdf="http://www.w3.org/1999/02/22-rdf-syntax-ns#"
   xmlns:svg="http://www.w3.org/2000/svg"
   xmlns="http://www.w3.org/2000/svg"
   xmlns:sodipodi="http://sodipodi.sourceforge.net/DTD/sodipodi-0.dtd"
   xmlns:inkscape="http://www.inkscape.org/namespaces/inkscape"
   width="210mm"
   height="297mm"
   viewBox="0 0 210 297"
   version="1.1"
   id="svg8"
   inkscape:version="0.92.5 (2060ec1f9f, 2020-04-08)"
   sodipodi:docname="i.svg">
  <defs
     id="defs2" />
  <sodipodi:namedview
     id="base"
     pagecolor="#ffffff"
     bordercolor="#666666"
     borderopacity="1.0"
     inkscape:pageopacity="0.0"
     inkscape:pageshadow="2"
     inkscape:zoom="0.35"
     inkscape:cx="400"
     inkscape:cy="560"
     inkscape:document-units="mm"
     inkscape:current-layer="layer1"
     showgrid="false"
     inkscape:window-width="1366"
     inkscape:window-height="716"
     inkscape:window-x="0"
     inkscape:window-y="0"
     inkscape:window-maximized="1" />
  <metadata
     id="metadata5">
    <rdf:RDF>
      <cc:Work
         rdf:about="">
        <dc:format>image/svg+xml</dc:format>
        <dc:type
           rdf:resource="http://purl.org/dc/dcmitype/StillImage" />
        <dc:title></dc:title>
      </cc:Work>
    </rdf:RDF>
  </metadata>
  <g
     inkscape:label="Layer 1"
     inkscape:groupmode="layer"
     id="layer1">
    <path
       id="path3751"
       d="m -157.98082,85.170804 c -16.8275,0 -30.40062,13.573125 -30.40062,30.400626 0,16.8275 13.57312,30.40062 30.40062,30.40062 16.8275,0 30.40063,-13.57312 30.40063,-30.40062 0,-16.827501 -13.57313,-30.400626 -30.40063,-30.400626 z m 0,50.164996 c -10.87437,0 -19.76437,-8.86354 -19.76437,-19.76437 0,-10.90083 8.86354,-19.764376 19.76437,-19.764376 10.90083,0 19.76438,8.863546 19.76438,19.764376 0,10.90083 -8.89,19.76437 -19.76438,19.76437 z m 38.735,-51.408538 c 0,3.942292 -3.175,7.090834 -7.09083,7.090834 -3.94229,0 -7.09084,-3.175 -7.09084,-7.090834 0,-3.915833 3.175,-7.090833 7.09084,-7.090833 3.91583,0 7.09083,3.175 7.09083,7.090833 z m 20.134797,7.196667 c -0.4498,-9.498542 -2.619377,-17.912292 -9.577917,-24.844375 -6.93208,-6.932083 -15.34584,-9.101667 -24.84438,-9.577917 -9.78958,-0.555625 -39.13187,-0.555625 -48.92146,0 -9.47208,0.449792 -17.88583,2.619375 -24.84437,9.551459 -6.95854,6.932083 -9.10167,15.345833 -9.57792,24.844375 -0.55562,9.789579 -0.55562,39.131879 0,48.921459 0.44979,9.49854 2.61938,17.91229 9.57792,24.84437 6.95854,6.93208 15.34583,9.10167 24.84437,9.57792 9.78959,0.55562 39.13188,0.55562 48.92146,0 9.49854,-0.4498 17.9123,-2.61938 24.84438,-9.57792 6.93208,-6.93208 9.101667,-15.34583 9.577917,-24.84437 0.55562,-9.78958 0.55562,-39.10542 0,-48.895001 z m -12.647087,59.398951 c -2.06375,5.18584 -6.05896,9.18104 -11.27125,11.27125 -7.80521,3.09563 -26.32604,2.38125 -34.95146,2.38125 -8.62542,0 -27.17271,0.68792 -34.95146,-2.38125 -5.18583,-2.06375 -9.18104,-6.05896 -11.27125,-11.27125 -3.09562,-7.8052 -2.38125,-26.32603 -2.38125,-34.95145 0,-8.62542 -0.68791,-27.172709 2.38125,-34.951459 2.06375,-5.185834 6.05896,-9.181042 11.27125,-11.27125 7.80521,-3.095625 26.32604,-2.38125 34.95146,-2.38125 8.62542,0 27.17271,-0.687917 34.95146,2.38125 5.18583,2.06375 9.18104,6.058958 11.27125,11.27125 3.09563,7.805208 2.38125,26.326039 2.38125,34.951459 0,8.62542 0.71438,27.17271 -2.38125,34.95145 z"
       inkscape:connector-curvature="0"
       style="fill:#ffffff;stroke-width:0.26458332" />
  </g>
</svg>
